<svg width="27" height="27" viewBox="0 0 27 27" fill="none" xmlns="http://www.w3.org/2000/svg">
<path d="M22.6667 3.88008C21.4443 2.64531 19.9882 1.6663 18.3835 1.00015C16.7788 0.333992 15.0575 -0.00597349 13.32 7.94262e-05C6.04 7.94262e-05 0.106667 5.93341 0.106667 13.2134C0.106667 15.5467 0.72 17.8134 1.86667 19.8134L0 26.6667L7 24.8267C8.93333 25.8801 11.1067 26.4401 13.32 26.4401C20.6 26.4401 26.5333 20.5067 26.5333 13.2267C26.5333 9.69341 25.16 6.37341 22.6667 3.88008ZM13.32 24.2001C11.3467 24.2001 9.41333 23.6667 7.72 22.6667L7.32 22.4267L3.16 23.5201L4.26667 19.4667L4 19.0534C2.90366 17.3027 2.32152 15.2791 2.32 13.2134C2.32 7.16008 7.25333 2.22675 13.3067 2.22675C16.24 2.22675 19 3.37341 21.0667 5.45341C22.09 6.47203 22.9009 7.68363 23.4525 9.01798C24.0041 10.3523 24.2854 11.7829 24.28 13.2267C24.3067 19.2801 19.3733 24.2001 13.32 24.2001ZM19.3467 15.9867C19.0133 15.8267 17.3867 15.0267 17.0933 14.9067C16.7867 14.8001 16.5733 14.7467 16.3467 15.0667C16.12 15.4001 15.4933 16.1467 15.3067 16.3601C15.12 16.5867 14.92 16.6134 14.5867 16.4401C14.2533 16.2801 13.1867 15.9201 11.9333 14.8001C10.9467 13.9201 10.2933 12.8401 10.0933 12.5067C9.90667 12.1734 10.0667 12.0001 10.24 11.8267C10.3867 11.6801 10.5733 11.4401 10.7333 11.2534C10.8933 11.0667 10.96 10.9201 11.0667 10.7067C11.1733 10.4801 11.12 10.2934 11.04 10.1334C10.96 9.97341 10.2933 8.34675 10.0267 7.68008C9.76 7.04008 9.48 7.12008 9.28 7.10675H8.64C8.41333 7.10675 8.06667 7.18675 7.76 7.52008C7.46667 7.85341 6.61333 8.65341 6.61333 10.2801C6.61333 11.9067 7.8 13.4801 7.96 13.6934C8.12 13.9201 10.2933 17.2534 13.6 18.6801C14.3867 19.0267 15 19.2267 15.48 19.3734C16.2667 19.6267 16.9867 19.5867 17.56 19.5067C18.2 19.4134 19.52 18.7067 19.7867 17.9334C20.0667 17.1601 20.0667 16.5067 19.9733 16.3601C19.88 16.2134 19.68 16.1467 19.3467 15.9867Z" fill="#19C37D"/>
</svg>
